<svg xmlns="http://www.w3.org/2000/svg" viewBox="0 0 400 400" id="Work-From-Home--Streamline-Free-Illustrations" height="400" width="400">
  <desc>
    Work From Home Streamline Illustration: https://streamlinehq.com
  </desc>
  <g>
    <g>
      <path d="M312.84 247.08a62 62 0 0 0 -1.76 -14.66 0.3807886553 0.3807886553 0 0 0 -0.74 0.18 60.4 60.4 0 0 1 1.74 14.48c0 22.92 -15.08 50.2 -37.6 54.58a24.92 24.92 0 0 0 -13.56 -17.48l-69.88 -34a54.84 54.84 0 0 1 2.96 -21.52 0.38 0.38 0 0 0 -0.22 -0.48 0.38 0.38 0 0 0 -0.5 0.22 55.2 55.2 0 0 0 -2.98 21.46L104 208a25.04 25.04 0 0 0 -33.4 11.56l-5.64 11.64 -6.66 -3.2a9.12 9.12 0 0 0 -12.18 4.22l-19.72 40.6A9.12 9.12 0 0 0 30.62 285l215.2 104.54a9.08 9.08 0 0 0 12.16 -4.22l19.74 -40.6a9.12 9.12 0 0 0 -4.22 -12.16l-6.68 -3.26 5.66 -11.64a24.82 24.82 0 0 0 2.14 -15.18c22.88 -4.48 38.22 -32.18 38.22 -55.4Zm-281.9 37.16a8.38 8.38 0 0 1 -3.86 -11.18l19.72 -40.6A8.36 8.36 0 0 1 58 228.6l14 6.82a8.34 8.34 0 0 1 3.86 11.16l-19.72 40.6a8.36 8.36 0 0 1 -11.16 3.88Zm17.32 8.4a9.1 9.1 0 0 0 8.56 -5.12l14 -28.94 170.74 82.94 -14 28.94a9.14 9.14 0 0 0 1.28 10Zm224.9 40.52a8.34 8.34 0 0 1 3.88 11.16l-19.74 40.6a8.34 8.34 0 0 1 -11.16 3.86l-14 -6.82a8.36 8.36 0 0 1 -3.86 -11.16L248 330.2a8.36 8.36 0 0 1 11.18 -3.86Zm-1.36 -16 -5.66 11.64 -6.68 -3.24a9.1 9.1 0 0 0 -12.18 4.2L242 340.84 71.22 258l5.32 -10.98a9.12 9.12 0 0 0 -4.2 -12.18l-6.68 -3.24 5.64 -11.64a24.28 24.28 0 0 1 32.4 -11.22l156.88 76.22a24.24 24.24 0 0 1 11.22 32.3Z" fill="#000000" stroke-width="1"></path>
      <path d="M214 133.62c10 -6 10.36 -8.76 8.38 -8 -3.04 1.02 -5.24 1.6 -7.3 2.12 8.7 -8.26 7.62 -11.02 6 -9.7 -2.88 2.24 -6 4.66 -8.58 6.62 8.8 -10.36 8.12 -14.86 6.62 -13.18 -2.38 2.66 -6.12 7.04 -9.02 10.12 6.34 -10.16 4 -9.82 1.46 -6.74 -2.98 3.62 -9.32 11.04 -9.66 11.8a11.06 11.06 0 0 0 -0.58 2.62c-5.84 -6.42 -7.2 -4.54 -5.84 -2.64a38.2 38.2 0 0 1 5.2 10.8 41.08 41.08 0 0 1 -0.7 7.36c-0.3 0.62 -1.6 3.04 -3.3 6a23.7 23.7 0 0 0 13.6 6c0.78 -2.12 1.48 -4.12 2 -5.86 2.16 -6.54 2.64 -8 1.56 -11.86 -0.88 -2.94 -1.72 -4.36 0.16 -5.46Z" fill="#ffffff" stroke-width="1"></path>
      <path d="M190 125.5s-3.36 -13.64 -2.98 -20.34c0.42 -7.46 -1.6 -4.96 -2.54 -2.42s-2.62 9.68 -4.48 7.04c-0.74 -1.7 -1.38 -2.94 -1.9 -4a122.34 122.34 0 0 1 -4 -14.46c-0.86 -4.3 -1.86 -3.62 -2 -2.94a27.52 27.52 0 0 0 -0.26 7.62c-4.9 -6.2 -7.54 -6.52 -4 0.44 4.64 9.22 8.5 20.16 8 30.44A23.54 23.54 0 0 0 190 125.5Z" fill="#ffffff" stroke-width="1"></path>
      <path d="m122.48 160.96 6.78 5.04 -8 1.42c-2.8 -12.66 -3.46 -12.46 -4.66 -17.42 -4.8 -1.02 -3.3 -6.68 0 -4.88 1.6 0.84 2.18 0.74 2.16 -0.28 0.46 -8.42 6.78 -11.06 11.46 -2.76s7.32 24.7 -7.74 18.88Z" fill="#ffffff" stroke-width="1"></path>
      <path d="M374.3 335.74a2.66 2.66 0 0 0 -1.38 -3.5l-20.68 -9.12a18.54 18.54 0 0 1 -9.66 -9.78c0 -0.22 -8.18 -19.32 -7.68 -18.12a2 2 0 0 0 -2.56 -1.06l-15.52 6.18a2 2 0 0 0 -1.08 2.62c1.08 2.62 -4 -9.46 10.66 25.48a22 22 0 0 0 13.1 12.28l13.02 4.48a17.5 17.5 0 0 0 21.76 -9.38s0.02 -0.04 0.02 -0.08Zm-57.2 -34.7 15.52 -6.2a1.22 1.22 0 0 1 1.58 0.68l5.78 13.62 -17.84 7.18 -5.72 -13.66a1.24 1.24 0 0 1 0.68 -1.62Zm35.68 43.46 -13.04 -4.5a21.18 21.18 0 0 1 -12.64 -11.84l-4.66 -11.14 17.84 -7.18 1.6 3.78a19.32 19.32 0 0 0 10 10.2l20.7 9.12a2 2 0 0 1 0.98 2.52 16.76 16.76 0 0 1 -20.78 9.04Z" fill="#000000" stroke-width="1"></path>
      <path d="M198.1 216.36a1.86 1.86 0 0 1 -3.7 0 1.86 1.86 0 0 1 3.7 0Z" fill="#000000" stroke-width="1"></path>
      <path d="M225.88 195.82a1.86 1.86 0 0 1 -3.7 0 1.86 1.86 0 0 1 3.7 0Z" fill="#000000" stroke-width="1"></path>
      <path d="M259.06 207.54a1.86 1.86 0 0 1 -3.7 0 1.86 1.86 0 0 1 3.7 0Z" fill="#000000" stroke-width="1"></path>
      <path d="M294.26 197.68a1.86 1.86 0 0 1 -3.7 0 1.86 1.86 0 0 1 3.7 0Z" fill="#000000" stroke-width="1"></path>
      <path d="M313.88 224.98a1.86 1.86 0 0 1 -3.72 0 1.86 1.86 0 0 1 3.72 0Z" fill="#000000" stroke-width="1"></path>
      <path d="M218.2 177.44a1.86 1.86 0 0 1 -3.72 0 1.86 1.86 0 0 1 3.72 0Z" fill="#000000" stroke-width="1"></path>
      <path d="M252 169.52a1.86 1.86 0 0 1 -3.7 0 1.86 1.86 0 0 1 3.7 0Z" fill="#000000" stroke-width="1"></path>
      <path d="M259.06 138.86a1.86 1.86 0 0 1 -3.7 0 1.86 1.86 0 0 1 3.7 0Z" fill="#000000" stroke-width="1"></path>
      <path d="M294.26 129.3a1.86 1.86 0 0 1 -3.7 0 1.86 1.86 0 0 1 3.7 0Z" fill="#000000" stroke-width="1"></path>
      <path d="M303 96.78a1.86 1.86 0 0 1 -3.72 0 1.86 1.86 0 0 1 3.72 0Z" fill="#000000" stroke-width="1"></path>
      <path d="m349.18 142.48 -9.32 1.46 -1.48 -9.34a0.38 0.38 0 1 0 -0.74 0.12l1.46 9.34 -9.34 1.46a0.38 0.38 0 1 0 0.12 0.74l9.34 -1.46 1.46 9.34a0.3847076812 0.3847076812 0 0 0 0.76 -0.12l-1.44 -9.34 9.34 -1.46a0.38 0.38 0 1 0 -0.16 -0.74Z" fill="#000000" stroke-width="1"></path>
      <path d="M98.86 52a16.62 16.62 0 0 0 -2.36 -8.7 16.54 16.54 0 0 0 -7.22 -6 0.38 0.38 0 0 0 -0.52 0.32 16.94 16.94 0 0 0 2.38 9.06 16.32 16.32 0 0 0 6 5.38 12.84 12.84 0 1 0 1.78 0Zm-9.34 -13.76a14.5 14.5 0 0 1 8.58 13.52 14.5 14.5 0 0 1 -8.58 -13.5ZM98.5 77a12.12 12.12 0 1 1 12.12 -12.12A12.14 12.14 0 0 1 98.5 77.02Z" fill="#000000" stroke-width="1"></path>
      <path d="M370.26 232c0 -0.96 -1.82 -2.58 -14 -7.24 -7.06 -2.68 -19.38 -8.62 -25.76 -11.8a35.5 35.5 0 0 0 0.64 -5.74 0.42 0.42 0 0 0 -0.2 -0.34 317.3 317.3 0 0 0 -64.6 -25.82 33.48 33.48 0 0 0 -14.22 -0.86 915.86 915.86 0 0 0 71.4 -72 0.4 0.4 0 0 0 0 -0.44c-1.18 -2 -2.4 -4 -3.68 -5.72 4.28 -5.86 11.3 -11.18 12.48 -15.1a16.46 16.46 0 0 0 0.5 -6.48c-0.86 -9.12 7.24 -27.32 1.7 -28 -0.96 0 -2.92 1.26 -10 12.14 -3.62 5.58 -12 16.5 -18.32 24.26a38.12 38.12 0 0 0 -7.02 -3.46 0.38 0.38 0 0 0 -0.42 0 868.94 868.94 0 0 1 -93.18 90.78c2.56 -5.26 5.46 -12 9.1 -20.62 0 -0.2 1.8 -2 -2 -5.46 2.22 -6.76 2.4 -7.74 0.92 -12.58 -0.68 -2.26 -0.84 -3 0.4 -3.76 11.86 -7.08 10 -9.42 8 -8.76 -2.4 0.8 -4.28 1.34 -6 1.78 8.9 -8.68 6.3 -10.72 4.46 -9.3l-6 4.76c7.82 -10 5.66 -13.04 4 -11.28l-6.5 7.38a21.14 21.14 0 0 0 2.2 -4.66c0.34 -1.34 -0.54 -1.66 -1.46 -1.06a30.58 30.58 0 0 0 -4.8 5.32c-4 4.66 -6.48 7.76 -6.74 8.32a10 10 0 0 0 -0.48 2c-3.02 -3.22 -5.18 -4.56 -6.12 -3.8 -0.5 0.42 -0.42 1.3 0.24 2.2a37.76 37.76 0 0 1 5.12 10.64 54.86 54.86 0 0 1 -0.6 6.96 5.58 5.58 0 0 0 -5.06 1.4l-1.3 -23.3c-0.12 -0.2 0.4 -2.4 -4.14 -3.76a62.92 62.92 0 0 1 -1.6 -13.6c0.26 -4.5 -0.4 -5.22 -0.98 -5.34 -1.06 -0.22 -2 2 -2.28 2.76 -0.72 2 -2.12 7.22 -3.28 7.4 -0.22 0 -0.42 -0.18 -0.56 -0.38 -2.74 -6.22 -1.42 -1.48 -4.36 -12.16 -1.5 -5.5 -1.76 -9.88 -3.36 -9.9a0.92 0.92 0 0 0 -0.86 0.78 26 26 0 0 0 -0.36 6.54c-1.02 -1.2 -4 -4.64 -5.18 -3.82 -2.42 1.64 6.42 11.3 8.66 28.28 -4.82 1.8 -4.34 4 -4.34 4.22L172.7 160l-27.56 8.34a5.7 5.7 0 0 0 -0.5 -2.96 6.18 6.18 0 0 0 6 -5.28 6.1 6.1 0 0 0 -2.54 -5.86 6.12 6.12 0 0 0 0.22 -11.66 6.12 6.12 0 0 0 -4 -10.76 6.14 6.14 0 0 0 -7.44 -8.64 6.14 6.14 0 0 0 -10.22 -5.38 6.38 6.38 0 0 0 -12 -1.9 6.14 6.14 0 0 0 -11.42 2 6.12 6.12 0 0 0 -9.74 5.86 6.14 6.14 0 0 0 -7.08 9 6.16 6.16 0 0 0 -6 5.28 6 6 0 0 0 2.56 5.86 6.14 6.14 0 0 0 -0.14 11.68 6.12 6.12 0 0 0 4 10.72 6.14 6.14 0 0 0 7.5 8.58 6.12 6.12 0 0 0 10.26 5.32 6.12 6.12 0 0 0 11.54 1.84 6.12 6.12 0 0 0 8.98 2 45 45 0 0 0 4.54 9.46c11.3 17.36 26.44 26 48.52 25.18 1.14 1.74 7.38 10 21.46 11.38 14.64 1.4 55.16 -15.06 58.14 -16.3a310 310 0 0 1 59.86 22.58 0.34 0.34 0 0 0 0.44 0c1.34 -1.62 2.68 -3.32 4 -5.12 10.32 5 12.82 7.52 20.4 5.12 8.9 -2.9 28.34 1.26 27.78 -4.34Zm-174.6 -105.6c-0.42 -0.6 -0.46 -1.08 -0.36 -1.18s1.76 0 5.5 4.16c-0.24 1.72 -0.38 3.88 -0.5 6a37.58 37.58 0 0 0 -4.64 -8.98Zm4.68 18c0.68 -2.82 0.6 -15.04 1.78 -17.7 0.3 -0.68 7.08 -8.64 9.62 -11.72a5.8 5.8 0 0 1 2 -1.76c0 0.32 -0.16 2 -4 8 -0.98 1.06 -1.88 2 -2.56 2.58 -0.36 0.34 0.14 0.9 0.5 0.56 2.74 -2.46 8.48 -9.24 11.66 -12.78 0.12 -0.14 0.2 -0.2 0.2 -0.24 0.34 0.58 -0.54 4.86 -7.36 12.88 -0.74 0.56 -1.46 1.06 -2.14 1.52a0.38 0.38 0 0 0 0.42 0.62c5.04 -3.36 11.12 -8.78 11.38 -8.42s-0.18 2.9 -7.02 9.32l-2.22 0.74a0.3807886553 0.3807886553 0 0 0 0.18 0.74c9.42 -2.36 9.64 -2.86 10.14 -2.82 0.12 0.34 -1.18 2.74 -9.14 7.5 -1.82 1.08 -1.4 2.48 -0.74 4.62 1.88 6.14 0.8 6.66 -3.14 18.48a23.58 23.58 0 0 1 -12.92 -5.7c3.42 -6.08 3.26 -5.88 3.36 -6.32Zm13.22 12.24c-1.1 2.62 -2.14 5.04 -3.12 7.3a25.22 25.22 0 0 1 -19.4 -8.48c1.38 -2.92 2.52 -5.56 3.24 -7.3 1.72 5.22 14.3 10.82 19.28 8.58ZM172.52 88.5c0 -0.4 0.34 0 0.54 0.26 0.66 1.24 1.32 6.14 3.58 14a61.2 61.2 0 0 0 -4.4 -6.8 28.94 28.94 0 0 1 0.28 -7.46Zm-4.34 7.78c-1.68 -3.32 -1.64 -4.46 -1.5 -4.6s0.72 -0.22 3.6 3.02a52.2 52.2 0 0 1 5.84 8.54 56.34 56.34 0 0 1 5.06 10.26 0.38 0.38 0 0 0 0.7 -0.28c-0.36 -0.92 -0.7 -1.72 -1.02 -2.46 2 0 3.28 -5.74 4 -8 0.56 -1.5 1.22 -2.28 1.42 -2.28s0.62 0.3 0.38 4.56c-0.28 5.24 1.82 15.08 2.98 20.12A23.32 23.32 0 0 1 176 126.6c0.36 -10.28 -3.2 -21.08 -7.82 -30.32Zm3.26 28.98c3.86 3.9 17.7 3.12 21.1 -1.16l0.38 6.78a25.82 25.82 0 0 1 -21.1 0.76Zm1.3 35.48 0.28 4.62a0.38 0.38 0 0 0 0.76 0c-0.7 -12 -1.2 -20.32 -2 -32.86a26.58 26.58 0 0 0 21.12 -0.76l0.88 15.64c-1.92 4.82 -8.7 20.62 -14.52 24.62s-31.62 0 -38.66 -1.42Zm-55.78 -10.9a0.38 0.38 0 0 0 -0.3 -0.28c-4.18 -0.9 -3.06 -5.72 -0.2 -4.2 1.16 0.62 1.82 0.76 2.26 0.5a1.18 1.18 0 0 0 0.46 -1.08c0.44 -8.16 6.32 -10.46 10.74 -2.58 2.9 5.16 5.22 14.3 2 18 -1.74 2 -4.86 2.14 -9.32 0.42a0.38 0.38 0 0 0 -0.38 0.64l6.1 4.58 -6.86 1.2c-2.98 -13.4 -3.46 -12.54 -4.5 -17.2Zm13.5 43.22c-4.64 -7.14 -6.9 -16.78 -8.82 -25.28l7.42 -1.3a33.62 33.62 0 0 0 2.46 3.7 11.12 11.12 0 0 0 -4.18 2 0.38 0.38 0 0 0 0.46 0.6c4 -3.1 8.44 -2.46 13.36 -1.42 7.42 1.4 32.28 5.42 38.52 1.14 3.8 -2.6 8 -10 11 -16.24a26 26 0 0 0 19.44 8.5c-11.44 26.32 -14.98 29.12 -28 30.3a170.84 170.84 0 0 1 -40.84 -1.06 0.38 0.38 0 1 0 0 0.74 158.66 158.66 0 0 0 18 2l21.62 4.58c-0.62 6.56 -2.24 14.96 -2.56 16.64 -20.96 0.58 -35.94 -6.54 -47.88 -24.9Zm187.4 42.44A311.66 311.66 0 0 0 258 212.98a0.5 0.5 0 0 0 -0.24 0c-0.44 0.18 -43.24 17.66 -57.9 16.28 -14 -1.34 -20 -9.76 -20.98 -11.12a130.86 130.86 0 0 0 2.84 -22.28c11.34 -0.98 16 -3.68 23.12 -17.8a868.4 868.4 0 0 0 94.4 -91.74c9.36 3.68 17.3 10.86 23.58 21.68a911.08 911.08 0 0 1 -72 72.52c-1.2 0.24 -11.44 2.9 -46 11.36a0.3807886553 0.3807886553 0 0 0 0.18 0.74l44.44 -11.04a32.62 32.62 0 0 1 16.76 0.26 317.64 317.64 0 0 1 64.26 25.66c-0.46 10.84 -5.78 19.64 -12.6 28Z" fill="#000000" stroke-width="1"></path>
      <path d="m54.1 182.9 -4.88 0.86a4.3 4.3 0 0 1 -4.96 -3.48l-0.86 -4.88a0.38 0.38 0 0 0 -0.74 0.14l0.86 4.88a4.28 4.28 0 0 1 -3.52 4.96l-4.88 0.86a0.38 0.38 0 0 0 0.14 0.74l4.88 -0.86a4.3 4.3 0 0 1 4.96 3.48l0.9 4.88a0.38 0.38 0 0 0 0.74 -0.14l-0.86 -4.88a4.32 4.32 0 0 1 3.48 -4.96l4.88 -0.86a0.38 0.38 0 0 0 -0.14 -0.74Zm-8.92 4.74a5.08 5.08 0 0 0 -3.18 -2.22 5.02 5.02 0 0 0 2.22 -3.18 5.08 5.08 0 0 0 3.18 2.22 5.08 5.08 0 0 0 -2.22 3.18Z" fill="#000000" stroke-width="1"></path>
      <path d="m242.3 11.28 -0.42 37.42 23.22 40.2 0.42 -37.42 -23.22 -40.2z" fill="#000000" stroke-width="1"></path>
      <path d="m238.24 78.82 -3.46 41.9 29.76 -29.8L250.5 66.6l-12.26 12.22z" fill="#000000" stroke-width="1"></path>
    </g>
  </g>
</svg>